PathFileType	4	(X/Y/Z)	Patient4_TMGait_0pt3_01_left_30.trc.trc
DataRate	CameraRate	NumFrames	NumMarkers	Units	OrigDataRate	OrigDataStartFrame	OrigNumFrames
50.000000000000	50.000000000000	5	33	mm	50.000000000000	53	       141
Frame#	Time	Sacral			L.Shoulder			Chest			R.Shoulder			Neck			R.ASIS			L.ASIS			R.Thigh.Superior			R.Thigh.Lateral			R.Thigh.Inferior			R.Patella			L.Thigh.Superior			L.Thigh.Lateral			L.Thigh.Inferior			L.Patella			L.Shank.Superior			L.Shank.Lateral			L.Shank.Inferior			R.Shank.Superior			R.Shank.Lateral			R.Shank.Inferior			R.Heel			R.Midfoot.Superior			R.Midfoot.Lateral			R.Toe			L.Heel			L.Midfoot.Lateral			L.Midfoot.Superior			L.Toe			L.Elbow			L.Wrist			R.Elbow			R.Wrist			
		X1	Y1	Z1	X2	Y2	Z2	X3	Y3	Z3	X4	Y4	Z4	X5	Y5	Z5	X6	Y6	Z6	X7	Y7	Z7	X8	Y8	Z8	X9	Y9	Z9	X10	Y10	Z10	X11	Y11	Z11	X12	Y12	Z12	X13	Y13	Z13	X14	Y14	Z14	X15	Y15	Z15	X16	Y16	Z16	X17	Y17	Z17	X18	Y18	Z18	X19	Y19	Z19	X20	Y20	Z20	X21	Y21	Z21	X22	Y22	Z22	X23	Y23	Z23	X24	Y24	Z24	X25	Y25	Z25	X26	Y26	Z26	X27	Y27	Z27	X28	Y28	Z28	X29	Y29	Z29	X30	Y30	Z30	X31	Y31	Z31	X32	Y32	Z32	X33	Y33	Z33	

53	57.770000000000	712.178927057809	1000.296386658771	439.574080000314	884.324863241261	1427.676240664618	252.145609495966	995.908576785835	1355.668259496496	405.864346905191	924.794317627064	1431.427500845497	583.655693585918	878.530508227050	1487.783802634595	409.968656357820	942.428292618906	931.302852885726	550.278243930254	923.771490430004	953.206573200576	277.951548520687	957.689764492950	721.319491616957	536.854255919573	864.807333545268	623.321471899933	605.256653854830	937.311088085196	554.278332224115	532.990885948120	916.893116613656	449.948029143659	557.786347043728	986.199952048894	750.288679064638	326.967631908843	912.239862331134	620.836656700568	272.609896719900	1000.436683870496	553.583952919113	345.269951047503	1005.735485797707	478.236091915868	355.494234244706	966.381933183303	405.232381708412	349.784882800138	864.878531695946	300.876144015411	301.321458733835	898.360128439470	186.892797726714	374.828438151809	835.952516681873	388.365028825570	567.570177596880	712.701376161608	355.775785221093	626.441873301079	697.683734358171	243.999102451820	583.266583080078	495.844765998703	183.460910731193	549.095592317020	658.948703408952	124.235278265436	604.895675671015	548.015442184191	126.041328608797	628.270885354440	719.708471737086	31.149001713066	637.671984872835	753.302294036092	40.465860746399	415.886310247099	826.820647058309	37.201516234324	335.530265415852	912.126361699438	95.945326279439	362.741516516669	1038.756289706903	39.771751946712	331.104790063886	811.198567089918	1091.812552949245	120.300649802819	857.132814777682	833.598452253986	129.252708367255	1021.754868770466	1101.255422798463	709.309153885934	1210.442851298720	927.038601286686	747.902432545648	
54	57.790000000000	711.164588060630	997.462677121806	434.780525353751	886.340976874941	1426.029046739192	250.728949972469	995.583565016211	1353.370048212208	405.713582900999	921.913233401167	1427.835102035095	583.156108643405	878.712116093743	1485.572576964858	408.907945632953	940.862862871324	929.391324817789	547.574059808595	924.602808591524	951.099959307196	275.116037225475	962.035600725009	720.876140585406	534.019920744185	872.179097999531	621.038447243921	602.630862585908	946.862161324372	553.344890777314	530.447639722698	927.881035729175	447.574600663404	556.127155103422	987.252101577965	748.239751266758	324.510475772128	913.731666872713	618.479908533833	270.837662570829	1001.871687703261	551.590477372786	344.136436396054	1007.020437369694	475.800647093385	354.761464773904	966.350598819363	402.777997168035	349.175598516257	863.320646342951	299.898867802263	300.636569145996	894.328544917893	185.671312780398	374.638131900667	845.009004864774	387.051930458163	565.526732319491	720.073500727611	358.880707498075	623.124815701367	702.187223139840	247.181574527120	580.919835634303	499.645732742048	194.065000013200	544.637854048349	659.621302703223	128.650567195021	603.126210906132	548.447439421853	135.245200168330	624.912889043924	715.478562043123	30.705528572760	637.699035864717	747.334608481413	40.546909906976	415.746072173648	820.862134383144	37.144003233899	335.429659677511	906.214617424456	95.814673191938	362.731616581716	1032.792703778357	39.663936601983	331.044870209129	824.115293713292	1088.466143037183	115.970116126908	877.070317794858	831.556377003088	124.713860652962	1002.349150771736	1092.080295298722	708.162378973382	1174.963209336095	902.589060174150	750.556293834735	
55	57.810000000000	709.960656704590	994.759876860828	430.311328072212	888.362171474129	1424.440513132851	249.604108101766	995.153746601117	1351.121515586223	405.889125054197	918.810543374160	1424.325473055589	582.883339042319	878.830227010081	1483.446860436359	408.090651847175	939.125870265852	927.559100423176	545.225995635244	925.218156648328	949.079003916630	272.609744934323	966.488091680910	720.860662429832	531.351701307169	879.903679067020	619.092243494517	600.177165558699	956.820517232156	552.966498093615	528.005471723755	939.478348143780	445.780368822381	554.456218181932	987.979137899952	746.168704853413	322.129688531780	914.697254231588	616.210272567616	269.148532230366	1002.766814026849	549.599762007136	342.978728805478	1007.723076397068	473.457904022502	354.023844361914	965.845680763771	400.435331054014	348.557524448348	861.417588819540	298.939339507978	299.931664143027	890.130887323252	184.513487669797	374.398940393445	854.796248003107	386.172075435912	563.400431208781	728.177403352269	362.155977450479	619.457733588139	707.732131050397	250.529752593026	578.154946270334	504.698126302193	204.164995181895	539.340040036872	661.628604813884	133.351634246772	600.858311015764	550.219613754436	144.373974490408	620.910831350071	712.802582776785	30.606167073455	637.611585129906	741.353536205218	40.623032991313	415.581694599628	814.894774521998	37.074890360122	335.302797858835	900.289130465265	95.678703434061	362.687790174808	1026.819351736933	39.570409979620	330.976642086240	837.579898379617	1085.421006698490	112.172463127567	898.289422057411	830.200688173643	121.033607688774	981.498232131588	1083.620397251709	706.658459809032	1137.046993069289	880.302619094164	751.422059945597	
56	57.830000000000	708.631035774969	992.375721433407	426.193347658985	890.414204047032	1423.082738089520	248.793599989282	994.633405323845	1349.110749351449	406.422425938044	915.484663246641	1421.113051908111	582.838055626828	878.873517211506	1481.579343374991	407.525460227190	937.238401850223	925.979505355365	543.273133580576	925.659641594458	947.300028016050	270.477303339782	970.885504807856	721.434432168061	528.874906258419	887.760237013327	617.698978232617	597.920333903043	966.889235051149	553.328481906411	525.691280156743	951.396381601812	444.795903241310	552.792922622949	988.329053953859	744.167216489387	319.889130510420	915.011307421923	614.156049311736	267.566189632726	1002.933977255013	547.686673963678	341.830263242409	1007.634392938726	471.304450926096	353.298660034781	964.693156951649	398.312378501853	347.937829811655	859.043012541080	298.051426671234	299.214439325599	885.714803329699	183.477328202806	374.115590153004	865.128529691616	385.860943537250	561.248388745987	736.874880425065	365.479461786334	615.568823187917	714.358278309933	253.879506006863	575.079285811087	510.997850315509	213.103266438748	533.461526703853	665.241052869192	138.080388915305	598.202464606503	553.559304182705	152.842885655096	616.464853090770	712.306094387600	30.932531880475	637.405374960978	735.356581902292	40.701372489528	415.398790881433	808.918124934754	37.002462565598	335.156477121158	894.350437262271	95.547001007306	362.608833498748	1020.835117414687	39.487365617144	330.902210004643	851.430746767135	1082.934541427812	108.926962309760	920.695973989677	829.889209028249	118.264564797130	959.358072239584	1076.255836080773	704.766195966148	1097.129839743303	860.669847440535	750.465899112519	
57	57.850000000000	707.242774704616	990.484444700022	422.437778301342	892.528192722754	1422.119129683172	248.316117518092	994.037532591057	1347.513685714814	407.339840471050	911.937892794039	1418.398853152702	583.016061680508	878.833582642444	1480.129646322969	407.219978419480	935.216108158800	924.818562296113	541.741590329773	925.980477994262	945.908117490202	268.757366283987	975.061903269126	722.729147506718	526.612376831789	895.525349626935	617.040887430979	595.880540220210	976.764159605105	554.574236687244	523.524189608669	963.339794383348	444.810719904804	551.156450907262	988.259974795874	742.323970069414	317.863343666740	914.573296785164	612.438975444577	266.118581266189	1002.209991093289	545.925717433139	340.736631398763	1006.571827803118	469.430232206481	352.613060674770	962.741471215149	396.509526883402	347.329851386388	856.088518504132	297.286746106942	298.495710538182	881.033548376333	182.615176068363	373.796649965046	875.817900150031	386.212134175971	559.138420738699	746.042074770703	368.680981595504	611.638632635862	722.107400730135	257.020654039205	571.851208262869	518.544367582341	220.198506346611	527.369053033703	670.730328191483	142.525673176015	595.326682400158	558.704068387018	160.022264559828	611.862576030317	714.636465640777	31.708129159586	637.100970947796	729.340580491818	40.786696468170	415.202580353971	802.931642508698	36.933856442099	334.997043624004	888.398096808225	95.429148225427	362.494658081825	1014.839197522860	39.412582444813	330.824136149552	865.494579633105	1081.241261763280	106.234731959857	944.156114873270	830.971585941255	116.453845257192	936.159794600502	1070.338008322789	702.461201772810	1055.714556541743	844.100185901735	747.744951979252	
